<svg width="122.88" height="119.45" xmlns="http://www.w3.org/2000/svg" version="1.1" xml:space="preserve">
 <g>
  <title>Layer 1</title>
  <g id="svg_1" fill="white">
   <path fill="#99aec2" class="st0" d="m12.26101,39.02596l99.81,0l0,2.84l-99.81,0l0,-2.84l0,0zm77.61,41.62l0,30.41l-7.11,0l0,-4.7l-41.92,0l0,4.7l-7.11,0l0,-30.41l-2.45,0l0,-4.68l5.98,0l3.33,-10.37c0.98,-3.05 2.62,-5.83 5.83,-5.83l31.98,0c3.21,0 5.06,2.72 5.83,5.83l2.58,10.37l5.5,0l0,4.68l-2.44,0l0,0l0,0zm-38.72,16.33l21,0l0,4.95l-21,0l0,-4.95l0,0l0,0zm-15.04,-11.53c5.35,0.17 8.62,2.41 9.46,7.08l-9.46,0l0,-7.08l0,0zm50.71,0c-5.35,0.17 -8.62,2.41 -9.46,7.08l9.46,0l0,-7.08l0,0zm-47,-9.47l43.97,0l-1.88,-8.7c-0.52,-2.39 -2,-4.44 -4.44,-4.44l-30.42,0c-2.44,0 -3.7,2.12 -4.44,4.44l-2.79,8.7l0,0l0,0zm72.25,-29.27l0,66.46l-99.81,0l0,-66.46l99.81,0l0,0zm-104.65,-5.36l-4.64,0l-2.42,0l0,-2.42l0,-11.93l0,-1.56l1.44,-0.64l57.68,-25.8l0.98,-0.44l0.97,0.43l60.36,26.77l1.45,0.64l0,1.57l0,10.95l0,2.42l-2.42,0l-3.91,0l0,74.24l0,2.42l-2.42,0l-104.65,0l-2.42,0l0,-2.42l0,-74.23l0,0z" fill-rule="evenodd" clip-rule="evenodd" id="svg_2"/>
  </g>
 </g>

</svg>